<svg width="24" height="24" viewBox="0 0 24 24" fill="none" xmlns="http://www.w3.org/2000/svg">
<path d="M2.35139 13.2135C1.99837 10.9162 1.82186 9.76763 2.25617 8.74938C2.69047 7.73112 3.65403 7.03443 5.58114 5.64106L7.02099 4.6C9.41829 2.86667 10.6169 2 12 2C13.3831 2 14.5817 2.86667 16.979 4.6L18.4189 5.64106C20.346 7.03443 21.3095 7.73112 21.7438 8.74938C22.1781 9.76763 22.0016 10.9162 21.6486 13.2135L21.3476 15.1724C20.8471 18.4289 20.5969 20.0572 19.429 21.0286C18.2611 22 16.5537 22 13.1388 22H10.8612C7.44633 22 5.73891 22 4.571 21.0286C3.40309 20.0572 3.15287 18.4289 2.65243 15.1724L2.35139 13.2135Z" fill="#008145" stroke="#008145" stroke-width="1.5" stroke-linejoin="round"/>
<path d="M8.74868 18.4911L8.78558 19.0076C8.86177 20.0742 8.89986 20.6076 9.13531 21.01C9.33311 21.3481 9.62582 21.6206 9.97713 21.7938C10.3953 22 10.93 22 11.9993 22C13.0687 22 13.6033 22 14.0215 21.7938C14.3728 21.6206 14.6655 21.3481 14.8633 21.01C15.0988 20.6076 15.1369 20.0742 15.2131 19.0076L15.25 18.4911C15.3847 16.6046 13.8906 15 11.9993 15C10.108 15 8.61394 16.6046 8.74868 18.4911Z" fill="#F7FBF9" stroke="#008145" stroke-width="1.5"/>
</svg>
