<svg width="256" height="256" version="1.1" xmlns="http://www.w3.org/2000/svg" desc="Created with imagetracer.js version 1.2.6" ><path fill="rgb(246,248,247)" stroke="rgb(246,248,247)" stroke-width="1" opacity="0.6274509803921569" d="M 23.5 0 L 34 0.5 L 23.5 1 L 23.5 0 Z " /><path fill="rgb(246,248,247)" stroke="rgb(246,248,247)" stroke-width="1" opacity="0.6274509803921569" d="M 223.5 0 L 233 0.5 L 223.5 1 L 223.5 0 Z " /><path fill="rgb(246,248,247)" stroke="rgb(246,248,247)" stroke-width="1" opacity="0.6274509803921569" d="M 18.5 1 L 21 1.5 L 18.5 2 L 18.5 1 Z " /><path fill="rgb(246,248,247)" stroke="rgb(246,248,247)" stroke-width="1" opacity="0.6274509803921569" d="M 235.5 1 L 238 1.5 L 235.5 2 L 235.5 1 Z " /><path fill="rgb(246,248,247)" stroke="rgb(246,248,247)" stroke-width="1" opacity="0.6274509803921569" d="M 12.5 3 L 14 3.5 L 11.5 5 L 12.5 3 Z " /><path fill="rgb(246,248,247)" stroke="rgb(246,248,247)" stroke-width="1" opacity="0.6274509803921569" d="M 9.5 5 L 5.5 10 L 9.5 5 Z " /><path fill="rgb(246,248,247)" stroke="rgb(246,248,247)" stroke-width="1" opacity="0.6274509803921569" d="M 246.5 5 L 250.5 10 L 246.5 5 Z " /><path fill="rgb(246,248,247)" stroke="rgb(246,248,247)" stroke-width="1" opacity="0.6274509803921569" d="M 251.5 11 L 253 13.5 L 252 13.5 L 251.5 11 Z " /><path fill="rgb(246,248,247)" stroke="rgb(246,248,247)" stroke-width="1" opacity="0.6274509803921569" d="M 1.5 18 L 2 20.5 L 1 20.5 L 1.5 18 Z " /><path fill="rgb(246,248,247)" stroke="rgb(246,248,247)" stroke-width="1" opacity="0.6274509803921569" d="M 254.5 18 L 255 20.5 L 254 20.5 L 254.5 18 Z " /><path fill="rgb(246,248,247)" stroke="rgb(246,248,247)" stroke-width="1" opacity="0.6274509803921569" d="M 0.5 23 L 1 32.5 L 0 32.5 L 0.5 23 Z " /><path fill="rgb(246,248,247)" stroke="rgb(246,248,247)" stroke-width="1" opacity="0.6274509803921569" d="M 255.5 23 L 256 33.5 L 255 33.5 L 255.5 23 Z " /><path fill="rgb(246,248,247)" stroke="rgb(246,248,247)" stroke-width="1" opacity="0.6274509803921569" d="M 0.5 222 L 1 232.5 L 0 232.5 L 0.5 222 Z " /><path fill="rgb(246,248,247)" stroke="rgb(246,248,247)" stroke-width="1" opacity="0.6274509803921569" d="M 255.5 223 L 256 232.5 L 255 232.5 L 255.5 223 Z " /><path fill="rgb(246,248,247)" stroke="rgb(246,248,247)" stroke-width="1" opacity="0.6274509803921569" d="M 1.5 235 L 2 237.5 L 1 237.5 L 1.5 235 Z " /><path fill="rgb(246,248,247)" stroke="rgb(246,248,247)" stroke-width="1" opacity="0.6274509803921569" d="M 254.5 235 L 255 237.5 L 254 237.5 L 254.5 235 Z " /><path fill="rgb(246,248,247)" stroke="rgb(246,248,247)" stroke-width="1" opacity="0.6274509803921569" d="M 3.5 242 L 5 244.5 L 3 243.5 L 3.5 242 Z " /><path fill="rgb(246,248,247)" stroke="rgb(246,248,247)" stroke-width="1" opacity="0.6274509803921569" d="M 5.5 246 L 9.5 251 L 5.5 246 Z " /><path fill="rgb(246,248,247)" stroke="rgb(246,248,247)" stroke-width="1" opacity="0.6274509803921569" d="M 250.5 246 L 246.5 251 L 250.5 246 Z " /><path fill="rgb(246,248,247)" stroke="rgb(246,248,247)" stroke-width="1" opacity="0.6274509803921569" d="M 244.5 251 L 243.5 253 L 242 252.5 L 244.5 251 Z " /><path fill="rgb(246,248,247)" stroke="rgb(246,248,247)" stroke-width="1" opacity="0.6274509803921569" d="M 18.5 254 L 21 254.5 L 18.5 255 L 18.5 254 Z " /><path fill="rgb(246,248,247)" stroke="rgb(246,248,247)" stroke-width="1" opacity="0.6274509803921569" d="M 235.5 254 L 238 254.5 L 235.5 255 L 235.5 254 Z " /><path fill="rgb(246,248,247)" stroke="rgb(246,248,247)" stroke-width="1" opacity="0.6274509803921569" d="M 23.5 255 L 33 255.5 L 23.5 256 L 23.5 255 Z " /><path fill="rgb(246,248,247)" stroke="rgb(246,248,247)" stroke-width="1" opacity="0.6274509803921569" d="M 222.5 255 L 233 255.5 L 222.5 256 L 222.5 255 Z " /><path fill="rgb(248,250,249)" stroke="rgb(248,250,249)" stroke-width="1" opacity="1" d="M 34.5 0 L 222.5 0 L 223.5 1 L 234.5 1 L 241.5 3 L 251 10.5 L 255 21.5 L 255 33.5 L 256 34.5 L 256 222.5 L 255 223.5 L 255 234.5 L 253 241.5 L 245.5 251 L 234.5 255 L 222.5 255 L 221.5 256 L 33.5 256 L 32.5 255 L 21.5 255 L 14.5 253 L 5 245.5 L 1 234.5 L 1 222.5 L 0 221.5 L 0 33.5 L 1 32.5 L 1 21.5 L 3 14.5 L 10.5 5 L 21.5 1 L 33.5 1 L 34.5 0 Z M 215 28 Q 160 93 114 166 L 115 167 L 141 148 Q 189 102 215 34 L 215 28 Z M 146 85 L 86 162 Q 62 193 41 229 L 42 230 Q 59 221 73 208 Q 94 186 110 160 L 127 131 L 148 90 Q 150 84 146 85 Z M 210 91 Q 155 146 95 196 Q 82 205 75 220 L 75 221 Q 113 205 141 178 L 169 149 L 212 93 L 210 91 Z " /><path fill="rgb(203,220,128)" stroke="rgb(203,220,128)" stroke-width="1" opacity="0.996078431372549" d="M 214.5 28 L 215 31.5 L 209 49.5 L 185 93.5 Q 167.7 121.7 144.5 144 L 115.5 166 L 115 164.5 Q 160.9 92.4 214.5 28 Z " /><path fill="rgb(203,220,128)" stroke="rgb(203,220,128)" stroke-width="1" opacity="0.996078431372549" d="M 210.5 91 L 211.5 93 L 210.5 91 Z " /><path fill="rgb(203,220,128)" stroke="rgb(203,220,128)" stroke-width="1" opacity="0.996078431372549" d="M 195.5 104 L 188.5 112 L 195.5 104 Z " /><path fill="rgb(203,220,128)" stroke="rgb(203,220,128)" stroke-width="1" opacity="0.996078431372549" d="M 168.5 130 L 164.5 135 L 168.5 130 Z " /><path fill="rgb(203,220,128)" stroke="rgb(203,220,128)" stroke-width="1" opacity="0.996078431372549" d="M 172.5 143 L 171.5 145 L 172.5 143 Z " /><path fill="rgb(203,220,128)" stroke="rgb(203,220,128)" stroke-width="1" opacity="0.996078431372549" d="M 152.5 145 L 150.5 148 L 152.5 145 Z " /><path fill="rgb(203,220,128)" stroke="rgb(203,220,128)" stroke-width="1" opacity="0.996078431372549" d="M 166.5 150 L 165.5 152 L 166.5 150 Z " /><path fill="rgb(203,220,128)" stroke="rgb(203,220,128)" stroke-width="1" opacity="0.996078431372549" d="M 141.5 155 L 140.5 157 L 141.5 155 Z " /><path fill="rgb(203,220,128)" stroke="rgb(203,220,128)" stroke-width="1" opacity="0.996078431372549" d="M 157.5 160 L 143.5 175 L 157.5 160 Z " /><path fill="rgb(203,220,128)" stroke="rgb(203,220,128)" stroke-width="1" opacity="0.996078431372549" d="M 133.5 162 L 132.5 164 L 133.5 162 Z " /><path fill="rgb(203,220,128)" stroke="rgb(203,220,128)" stroke-width="1" opacity="0.996078431372549" d="M 125.5 169 L 123.5 172 L 125.5 169 Z " /><path fill="rgb(203,220,128)" stroke="rgb(203,220,128)" stroke-width="1" opacity="0.996078431372549" d="M 116.5 177 L 115.5 179 L 116.5 177 Z " /><path fill="rgb(203,220,128)" stroke="rgb(203,220,128)" stroke-width="1" opacity="0.996078431372549" d="M 135.5 181 L 134.5 183 L 135.5 181 Z " /><path fill="rgb(203,220,128)" stroke="rgb(203,220,128)" stroke-width="1" opacity="0.996078431372549" d="M 108.5 184 L 107.5 186 L 108.5 184 Z " /><path fill="rgb(203,220,128)" stroke="rgb(203,220,128)" stroke-width="1" opacity="0.996078431372549" d="M 100.5 191 L 99.5 193 L 100.5 191 Z " /><path fill="rgb(203,220,128)" stroke="rgb(203,220,128)" stroke-width="1" opacity="0.996078431372549" d="M 81.5 197 L 80.5 199 L 81.5 197 Z " /><path fill="rgb(203,220,128)" stroke="rgb(203,220,128)" stroke-width="1" opacity="0.996078431372549" d="M 92.5 198 L 91.5 200 L 92.5 198 Z " /><path fill="rgb(203,220,128)" stroke="rgb(203,220,128)" stroke-width="1" opacity="0.996078431372549" d="M 65.5 213 L 64.5 215 L 65.5 213 Z " /><path fill="rgb(214,223,203)" stroke="rgb(214,223,203)" stroke-width="1" opacity="0.9725490196078431" d="M 210.5 32 L 209.5 34 L 210.5 32 Z " /><path fill="rgb(214,223,203)" stroke="rgb(214,223,203)" stroke-width="1" opacity="0.9725490196078431" d="M 198.5 47 L 197.5 49 L 198.5 47 Z " /><path fill="rgb(214,223,203)" stroke="rgb(214,223,203)" stroke-width="1" opacity="0.9725490196078431" d="M 188.5 60 L 187.5 62 L 188.5 60 Z " /><path fill="rgb(214,223,203)" stroke="rgb(214,223,203)" stroke-width="1" opacity="0.9725490196078431" d="M 173.5 80 L 172.5 82 L 173.5 80 Z " /><path fill="rgb(214,223,203)" stroke="rgb(214,223,203)" stroke-width="1" opacity="0.9725490196078431" d="M 170.5 84 L 169.5 86 L 170.5 84 Z " /><path fill="rgb(214,223,203)" stroke="rgb(214,223,203)" stroke-width="1" opacity="0.9725490196078431" d="M 143.5 87 L 142.5 89 L 143.5 87 Z " /><path fill="rgb(214,223,203)" stroke="rgb(214,223,203)" stroke-width="1" opacity="0.9725490196078431" d="M 204.5 95 L 196.5 104 L 204.5 95 Z " /><path fill="rgb(214,223,203)" stroke="rgb(214,223,203)" stroke-width="1" opacity="0.9725490196078431" d="M 207.5 98 L 206.5 100 L 207.5 98 Z " /><path fill="rgb(214,223,203)" stroke="rgb(214,223,203)" stroke-width="1" opacity="0.9725490196078431" d="M 159.5 99 L 158.5 101 L 159.5 99 Z " /><path fill="rgb(214,223,203)" stroke="rgb(214,223,203)" stroke-width="1" opacity="0.9725490196078431" d="M 204.5 102 L 203.5 104 L 204.5 102 Z " /><path fill="rgb(214,223,203)" stroke="rgb(214,223,203)" stroke-width="1" opacity="0.9725490196078431" d="M 130.5 104 L 129.5 106 L 130.5 104 Z " /><path fill="rgb(214,223,203)" stroke="rgb(214,223,203)" stroke-width="1" opacity="0.9725490196078431" d="M 123.5 113 L 122.5 115 L 123.5 113 Z " /><path fill="rgb(214,223,203)" stroke="rgb(214,223,203)" stroke-width="1" opacity="0.9725490196078431" d="M 166.5 119 L 165.5 121 L 166.5 119 Z " /><path fill="rgb(214,223,203)" stroke="rgb(214,223,203)" stroke-width="1" opacity="0.9725490196078431" d="M 189.5 122 L 188.5 124 L 189.5 122 Z " /><path fill="rgb(214,223,203)" stroke="rgb(214,223,203)" stroke-width="1" opacity="0.9725490196078431" d="M 162.5 124 L 161.5 126 L 162.5 124 Z " /><path fill="rgb(214,223,203)" stroke="rgb(214,223,203)" stroke-width="1" opacity="0.9725490196078431" d="M 174.5 124 L 169.5 130 L 174.5 124 Z " /><path fill="rgb(214,223,203)" stroke="rgb(214,223,203)" stroke-width="1" opacity="0.9725490196078431" d="M 139.5 127 L 138.5 129 L 139.5 127 Z " /><path fill="rgb(214,223,203)" stroke="rgb(214,223,203)" stroke-width="1" opacity="0.9725490196078431" d="M 156.5 131 L 154.5 134 L 156.5 131 Z " /><path fill="rgb(214,223,203)" stroke="rgb(214,223,203)" stroke-width="1" opacity="0.9725490196078431" d="M 182.5 131 L 181.5 133 L 182.5 131 Z " /><path fill="rgb(214,223,203)" stroke="rgb(214,223,203)" stroke-width="1" opacity="0.9725490196078431" d="M 106.5 135 L 105.5 137 L 106.5 135 Z " /><path fill="rgb(214,223,203)" stroke="rgb(214,223,203)" stroke-width="1" opacity="0.9725490196078431" d="M 178.5 136 L 177.5 138 L 178.5 136 Z " /><path fill="rgb(214,223,203)" stroke="rgb(214,223,203)" stroke-width="1" opacity="0.9725490196078431" d="M 156.5 141 L 153.5 145 L 156.5 141 Z " /><path fill="rgb(214,223,203)" stroke="rgb(214,223,203)" stroke-width="1" opacity="0.9725490196078431" d="M 143.5 144 L 140.5 148 L 143.5 144 Z " /><path fill="rgb(214,223,203)" stroke="rgb(214,223,203)" stroke-width="1" opacity="0.9725490196078431" d="M 168.5 148 L 167.5 150 L 168.5 148 Z " /><path fill="rgb(214,223,203)" stroke="rgb(214,223,203)" stroke-width="1" opacity="0.9725490196078431" d="M 135.5 151 L 134.5 153 L 135.5 151 Z " /><path fill="rgb(214,223,203)" stroke="rgb(214,223,203)" stroke-width="1" opacity="0.9725490196078431" d="M 93.5 152 L 92.5 154 L 93.5 152 Z " /><path fill="rgb(214,223,203)" stroke="rgb(214,223,203)" stroke-width="1" opacity="0.9725490196078431" d="M 144.5 152 L 142.5 155 L 144.5 152 Z " /><path fill="rgb(214,223,203)" stroke="rgb(214,223,203)" stroke-width="1" opacity="0.9725490196078431" d="M 130.5 155 L 129.5 157 L 130.5 155 Z " /><path fill="rgb(214,223,203)" stroke="rgb(214,223,203)" stroke-width="1" opacity="0.9725490196078431" d="M 90.5 156 L 89.5 158 L 90.5 156 Z " /><path fill="rgb(214,223,203)" stroke="rgb(214,223,203)" stroke-width="1" opacity="0.9725490196078431" d="M 160.5 157 L 158.5 160 L 160.5 157 Z " /><path fill="rgb(214,223,203)" stroke="rgb(214,223,203)" stroke-width="1" opacity="0.9725490196078431" d="M 126.5 158 L 125.5 160 L 126.5 158 Z " /><path fill="rgb(214,223,203)" stroke="rgb(214,223,203)" stroke-width="1" opacity="0.9725490196078431" d="M 87.5 160 L 86.5 162 L 87.5 160 Z " /><path fill="rgb(214,223,203)" stroke="rgb(214,223,203)" stroke-width="1" opacity="0.9725490196078431" d="M 135.5 160 L 134.5 162 L 135.5 160 Z " /><path fill="rgb(214,223,203)" stroke="rgb(214,223,203)" stroke-width="1" opacity="0.9725490196078431" d="M 127.5 167 L 126.5 169 L 127.5 167 Z " /><path fill="rgb(214,223,203)" stroke="rgb(214,223,203)" stroke-width="1" opacity="0.9725490196078431" d="M 119.5 174 L 117.5 177 L 119.5 174 Z " /><path fill="rgb(214,223,203)" stroke="rgb(214,223,203)" stroke-width="1" opacity="0.9725490196078431" d="M 142.5 175 L 140.5 178 L 142.5 175 Z " /><path fill="rgb(214,223,203)" stroke="rgb(214,223,203)" stroke-width="1" opacity="0.9725490196078431" d="M 94.5 181 L 93.5 183 L 94.5 181 Z " /><path fill="rgb(214,223,203)" stroke="rgb(214,223,203)" stroke-width="1" opacity="0.9725490196078431" d="M 110.5 182 L 109.5 184 L 110.5 182 Z " /><path fill="rgb(214,223,203)" stroke="rgb(214,223,203)" stroke-width="1" opacity="0.9725490196078431" d="M 133.5 183 L 132.5 185 L 133.5 183 Z " /><path fill="rgb(214,223,203)" stroke="rgb(214,223,203)" stroke-width="1" opacity="0.9725490196078431" d="M 91.5 185 L 90.5 187 L 91.5 185 Z " /><path fill="rgb(214,223,203)" stroke="rgb(214,223,203)" stroke-width="1" opacity="0.9725490196078431" d="M 102.5 189 L 101.5 191 L 102.5 189 Z " /><path fill="rgb(214,223,203)" stroke="rgb(214,223,203)" stroke-width="1" opacity="0.9725490196078431" d="M 87.5 190 L 86.5 192 L 87.5 190 Z " /><path fill="rgb(214,223,203)" stroke="rgb(214,223,203)" stroke-width="1" opacity="0.9725490196078431" d="M 83.5 195 L 82.5 197 L 83.5 195 Z " /><path fill="rgb(214,223,203)" stroke="rgb(214,223,203)" stroke-width="1" opacity="0.9725490196078431" d="M 94.5 196 L 93.5 198 L 94.5 196 Z " /><path fill="rgb(214,223,203)" stroke="rgb(214,223,203)" stroke-width="1" opacity="0.9725490196078431" d="M 112.5 199 L 111.5 201 L 112.5 199 Z " /><path fill="rgb(214,223,203)" stroke="rgb(214,223,203)" stroke-width="1" opacity="0.9725490196078431" d="M 73.5 206 L 72.5 208 L 73.5 206 Z " /><path fill="rgb(214,223,203)" stroke="rgb(214,223,203)" stroke-width="1" opacity="0.9725490196078431" d="M 59.5 218 L 58.5 220 L 59.5 218 Z " /><path fill="rgb(18,73,46)" stroke="rgb(18,73,46)" stroke-width="1" opacity="1" d="M 145 85 L 148 86.5 Q 131.9 122.9 112 155.5 Q 92.8 187.8 66.5 213 L 42.5 229 L 42 227.5 L 80 170.5 L 145 85 Z " /><path fill="rgb(18,73,46)" stroke="rgb(18,73,46)" stroke-width="1" opacity="1" d="M 209.5 91 L 211 93.5 L 171 145.5 L 136.5 181 Q 110.4 204.9 75.5 220 L 76 218.5 Q 81.2 207.2 90.5 200 Q 153.1 148.6 209.5 91 Z " /><path fill="rgb(0,0,0)" stroke="rgb(0,0,0)" stroke-width="1" opacity="0" d="M 0 0 L 23 0.5 Q 10.3 1.3 5 9.5 Q 1.3 14.8 0.5 23 L 0 0 Z " /><path fill="rgb(0,0,0)" stroke="rgb(0,0,0)" stroke-width="1" opacity="0" d="M 233.5 0 L 256 0 L 256 22.5 L 255 22.5 Q 254.6 9.9 246.5 5 L 237.5 1 L 233.5 1 L 233.5 0 Z " /><path fill="rgb(0,0,0)" stroke="rgb(0,0,0)" stroke-width="1" opacity="0" d="M 0.5 233 Q 1.3 245.7 9.5 251 Q 14.8 254.8 23 255.5 L 0 256 L 0.5 233 Z " /><path fill="rgb(0,0,0)" stroke="rgb(0,0,0)" stroke-width="1" opacity="0" d="M 255.5 233 L 256 256 L 233 255.5 Q 245.7 254.7 251 246.5 Q 254.8 241.3 255.5 233 Z " /></svg>